<?xml version="1.0" encoding="utf-8"?>
<!-- Generator: Adobe Illustrator 16.0.0, SVG Export Plug-In . SVG Version: 6.00 Build 0)  -->
<!DOCTYPE svg PUBLIC "-//W3C//DTD SVG 1.1//EN" "http://www.w3.org/Graphics/SVG/1.1/DTD/svg11.dtd">
<svg version="1.1" id="Layer_1" xmlns="http://www.w3.org/2000/svg" xmlns:xlink="http://www.w3.org/1999/xlink" x="0px" y="0px"
	 width="94px" height="88px" viewBox="0 0 94 88" enable-background="new 0 0 94 88" xml:space="preserve">
<path fill-rule="evenodd" clip-rule="evenodd" fill="#999999" d="M86.502,34.214v31.6c-0.011,0.883-0.33,1.636-0.957,2.264
	c-0.65,0.648-1.434,0.975-2.35,0.975c-0.756,0-1.417-0.221-1.984-0.66L72,59.216c-3.424,1.868-7.197,2.92-11.317,3.151H59.29
	c2.136-3.922,3.204-8.293,3.204-13.11c0-1.381-0.088-2.721-0.262-4.022c-0.963,0.291-1.984,0.438-3.064,0.438
	c-2.867,0-5.305-1.011-7.313-3.031c-2.008-1.995-3.013-4.428-3.013-7.294c0-2.844,1.005-5.276,3.013-7.296
	c0.116-0.116,0.232-0.22,0.348-0.313c-0.023-0.011-0.041-0.028-0.052-0.052c-4.909-4.005-10.649-6.007-17.22-6.007l-0.208-0.122
	c1.219-2.205,2.792-4.277,4.718-6.215c5.386-5.375,11.886-8.062,19.5-8.062c7.625,0,14.126,2.687,19.5,8.062
	C83.677,20.576,86.363,26.867,86.502,34.214z M52.203,27.737c0.766,0.627,1.51,1.301,2.229,2.02c4.4,4.4,7,9.559,7.801,15.478
	c1.566-0.475,2.977-1.34,4.23-2.594c1.996-1.995,2.995-4.428,2.995-7.294c0-2.844-0.999-5.276-2.995-7.296
	c-2.02-2.007-4.451-3.012-7.295-3.012C56.463,25.039,54.143,25.938,52.203,27.737z M42.018,42.45c2.02,2.021,3.03,4.458,3.03,7.313
	c0,2.751-0.928,5.101-2.786,7.051c4.342,3.377,9.32,5.229,14.939,5.554c0.568,0.023,1.148,0.034,1.74,0.034l0.244,0.157v0.019
	c-1.254,2.193-2.838,4.248-4.754,6.163c-4.967,4.968-10.881,7.644-17.741,8.025h-3.482c-4.132-0.221-7.91-1.27-11.334-3.151
	l-9.193,9.177c-0.58,0.452-1.248,0.678-2.002,0.678c-0.905,0-1.688-0.33-2.35-0.992c-0.627-0.626-0.946-1.374-0.958-2.246V48.629
	c0.139-7.347,2.827-13.637,8.062-18.872c5.316-5.316,11.723-8.008,19.222-8.079c-2.183,3.947-3.274,8.333-3.274,13.162
	c0,1.73,0.134,3.402,0.401,5.016c0.929-0.268,1.909-0.401,2.942-0.401C37.59,39.455,40.021,40.453,42.018,42.45z M27.41,57.057
	c2.02,2.021,4.458,3.031,7.313,3.031c2.867,0,5.298-1.011,7.295-3.031c0.082-0.081,0.163-0.161,0.244-0.243
	c-0.975-0.755-1.915-1.579-2.82-2.474c-4.155-4.166-6.708-8.994-7.661-14.484c-1.625,0.453-3.082,1.317-4.371,2.594
	c-1.996,2.021-2.994,4.458-2.994,7.313S25.414,55.048,27.41,57.057z"/>
</svg>
